@startuml
skinparam classAttributeIconSize 0

' === Classes ===
class Author
class Paper
class Conference
class Workshop
class Journal
class Keyword
class Review

' === Datatype Properties ===

' Author
Author : fullName : string
Author : affiliatedTo : string

' Paper
Paper : hasTitle : string
Paper : hasAbstract : string
Paper : hasYear : int
Paper : hasDOI : string

' Keyword
Keyword : keywordName : string

' Journal
Journal : hasVolume : int

' Review
Review : reviewComment : string
Review : reviewScore : int

' === Object Properties ===
Author --> Paper : authorOf
Author --> Paper : correspondingAuthor
Author --> Review : wroteReview
Paper --> Keyword : about
Paper --> Paper : related
Paper --> Conference : publishedInConference
Paper --> Workshop : publishedInWorkshop
Paper --> Journal : publishedInJournal
Review --> Paper : reviews

@enduml
